<svg width="14" height="19" viewBox="0 0 14 19" fill="none" xmlns="http://www.w3.org/2000/svg">
<path d="M11.9999 6.66671H11.1666V5.00004C11.1666 2.70004 9.29992 0.833374 6.99992 0.833374C4.69992 0.833374 2.83325 2.70004 2.83325 5.00004V6.66671H1.99992C1.08325 6.66671 0.333252 7.41671 0.333252 8.33337V16.6667C0.333252 17.5834 1.08325 18.3334 1.99992 18.3334H11.9999C12.9166 18.3334 13.6666 17.5834 13.6666 16.6667V8.33337C13.6666 7.41671 12.9166 6.66671 11.9999 6.66671ZM6.99992 14.1667C6.08325 14.1667 5.33325 13.4167 5.33325 12.5C5.33325 11.5834 6.08325 10.8334 6.99992 10.8334C7.91658 10.8334 8.66658 11.5834 8.66658 12.5C8.66658 13.4167 7.91658 14.1667 6.99992 14.1667ZM9.58325 6.66671H4.41658V5.00004C4.41658 3.57504 5.57492 2.41671 6.99992 2.41671C8.42492 2.41671 9.58325 3.57504 9.58325 5.00004V6.66671Z" fill="#A5B0C1"/>
</svg>
